<svg width="384" height="512" viewBox="0 0 384 512" fill="none" xmlns="http://www.w3.org/2000/svg">
<path d="M336 0H48C21.5 0 0 21.5 0 48V464C0 490.5 21.5 512 48 512H336C362.5 512 384 490.5 384 464V48C384 21.5 362.5 0 336 0ZM336 464H48V48H336V464ZM144 112H240C248.8 112 256 104.8 256 96C256 87.2 248.8 80 240 80H144C135.2 80 128 87.2 128 96C128 104.8 135.2 112 144 112ZM192 288C227.3 288 256 259.3 256 224C256 188.7 227.3 160 192 160C156.7 160 128 188.7 128 224C128 259.3 156.7 288 192 288ZM102.4 416H281.6C294 416 304 407.4 304 396.8V377.6C304 345.8 273.9 320 236.8 320C226 320 218.1 328 192 328C165.1 328 158.6 320 147.2 320C110.1 320 80 345.8 80 377.6V396.8C80 407.4 90 416 102.4 416V416Z" fill="#FDF8F8"/>
</svg>
