<svg width="512" height="414" viewBox="0 0 512 414" fill="none" xmlns="http://www.w3.org/2000/svg">
<path d="M216.29 109.39H137C97 98.9 6.51 101.63 6.51 184.18C6.51 214.27 21.51 235.41 41.51 245.18C16.41 268.18 4.51 279.03 4.51 294.39C4.51 305.39 8.98 315.53 22.4 321.2C8.13 334.61 0 344.35 0 362.65C0 394.76 28.05 413.47 101.63 413.47C172.38 413.47 213.42 387.05 213.42 340.29C213.42 281.63 168.26 283.79 61.79 277.29L75.22 255.74C102.49 263.32 193.92 265.74 193.92 187.85C193.92 169.15 186.19 156.14 178.92 146.78L216.33 143.94L216.29 109.39ZM152.87 351.29C152.87 383.35 47.98 383.39 47.98 353.72C47.98 345.58 53.25 338.72 58.55 332.18C136.26 337.48 152.87 335.55 152.87 351.29ZM102.06 216.71C49.26 216.71 51.6 145.55 103.26 145.55C152.8 145.55 154.08 216.71 102.06 216.71ZM235.36 317.22V285.12C262.11 281.46 262.6 283.12 262.6 274.12V154.61C262.6 146.11 260.55 147.23 235.36 138.35L239.83 105.43H324V274.14C324 280.65 324.4 281.46 330.51 282.28L351.24 285.12V317.22H235.36ZM287.81 72.91C264.64 72.91 251.22 59.48 251.22 36.3C251.22 13.12 264.64 0.530029 287.81 0.530029C311.39 0.530029 324.81 13.15 324.81 36.3C324.81 59.45 311.39 72.91 287.81 72.91ZM512 301.46C494.51 309.99 468.9 317.72 445.72 317.72C397.34 317.72 379.05 298.22 379.05 252.26V145.75C379.05 140.33 380.1 141.69 347.34 141.69V105.5C383.12 101.43 397.34 83.5 401.81 39.23H440.44C440.44 105.06 439.1 101.04 443.7 101.04H501V141.69H440.44V238.84C440.44 245.76 435.52 290.25 501.01 265.68L512 301.46Z" fill="#EE523B"/>
</svg>
