<svg width="512" height="449" viewBox="0 0 512 449" fill="none" xmlns="http://www.w3.org/2000/svg">
<path d="M418.2 145.187C412.8 143.387 407.4 141.687 402 140.087C402.9 136.387 403.7 132.687 404.5 128.987C416.8 69.3875 408.7 21.4875 381.4 5.6875C355.1 -9.41251 312.2 6.28749 268.8 44.0875C264.5 47.7875 260.3 51.6875 256.3 55.5875C253.6 52.9875 250.8 50.3875 248 47.8875C202.5 7.4875 156.9 -9.5125 129.6 6.3875C103.4 21.5875 95.6 66.6875 106.6 123.088C107.7 128.688 108.9 134.187 110.3 139.787C103.9 141.587 97.6 143.587 91.7 145.687C38.3 164.187 0 193.387 0 223.587C0 254.787 40.8 286.087 96.3 305.087C100.8 306.587 105.3 308.087 109.9 309.387C108.4 315.387 107.1 321.287 105.9 327.387C95.4 382.887 103.6 426.887 129.8 441.987C156.8 457.587 202.2 441.587 246.4 402.887C249.9 399.787 253.4 396.588 256.9 393.188C261.3 397.488 265.9 401.587 270.5 405.587C313.3 442.387 355.6 457.288 381.7 442.188C408.7 426.587 417.5 379.287 406.1 321.688C405.2 317.287 404.2 312.787 403.1 308.188C406.3 307.288 409.4 306.287 412.5 305.287C470.2 286.187 512 255.287 512 223.587C512 193.287 472.6 163.887 418.2 145.187V145.187ZM282.9 60.2875C320.1 27.8875 354.8 15.1875 370.6 24.2875C387.5 33.9875 394 73.1875 383.4 124.687C382.7 128.087 382 131.387 381.1 134.687C358.9 129.687 336.4 126.088 313.8 124.088C300.8 105.488 286.6 87.6875 271.2 70.9875C275.1 67.2875 278.9 63.7875 282.9 60.2875V60.2875ZM167.2 275.487C172.3 284.187 177.5 292.887 183 301.387C167.4 299.687 151.9 297.187 136.6 293.887C141 279.487 146.5 264.587 152.9 249.387C157.5 258.187 162.2 266.887 167.2 275.487V275.487ZM136.9 155.187C151.3 151.987 166.6 149.387 182.5 147.387C177.2 155.687 172 164.187 167.1 172.787C162.2 181.287 157.4 189.987 152.9 198.787C146.6 183.887 141.3 169.287 136.9 155.187ZM164.3 224.087C170.9 210.287 178.1 196.787 185.7 183.487C193.3 170.187 201.5 157.287 210.1 144.587C225.1 143.487 240.4 142.887 256 142.887C271.6 142.887 287 143.487 301.9 144.587C310.4 157.187 318.5 170.087 326.2 183.287C333.9 196.487 341.1 209.987 347.9 223.687C341.2 237.487 334 251.087 326.3 264.487C318.7 277.787 310.6 290.687 302.1 303.487C287.2 304.587 271.7 305.087 256 305.087C240.3 305.087 225.1 304.587 210.4 303.688C201.7 290.988 193.5 277.988 185.8 264.688C178.1 251.387 171 237.887 164.3 224.087ZM344.9 275.287C350 266.487 354.8 257.587 359.5 248.587C365.9 263.087 371.5 277.787 376.4 292.887C360.9 296.387 345.2 299.087 329.4 300.887C334.8 292.487 339.9 283.887 344.9 275.287ZM359.3 198.787C354.6 189.987 349.8 181.187 344.8 172.587C339.9 164.087 334.8 155.687 329.5 147.387C345.6 149.387 361 152.087 375.4 155.387C370.8 170.187 365.4 184.587 359.3 198.787V198.787ZM256.2 86.2875C266.7 97.6875 276.6 109.688 285.8 122.088C266 121.188 246.1 121.188 226.3 122.088C236.1 109.188 246.2 97.1875 256.2 86.2875ZM140.2 24.9875C157 15.1875 194.3 29.1875 233.6 63.9875C236.1 66.1875 238.6 68.5875 241.2 70.9875C225.7 87.6875 211.4 105.488 198.3 124.088C175.7 126.088 153.3 129.587 131.1 134.487C129.8 129.387 128.7 124.187 127.6 118.987C118.2 70.5875 124.4 34.0875 140.2 24.9875V24.9875ZM115.7 288.587C111.5 287.387 107.4 286.087 103.3 284.688C82 277.988 57.8 267.387 40.3 253.487C30.2 246.487 23.4 235.687 21.5 223.587C21.5 205.287 53.1 181.887 98.7 165.987C104.4 163.987 110.2 162.187 116 160.487C122.8 182.187 131 203.487 140.5 224.087C130.9 244.987 122.6 266.587 115.7 288.587V288.587ZM232.3 386.587C215.8 401.687 196.7 413.687 175.9 421.887C164.8 427.187 152 427.688 140.6 423.188C124.7 413.988 118.1 378.688 127.1 331.188C128.2 325.588 129.4 319.987 130.8 314.487C153.2 319.287 175.8 322.587 198.7 324.287C211.9 342.987 226.4 360.888 241.9 377.688C238.7 380.787 235.5 383.787 232.3 386.587ZM256.8 362.287C246.6 351.287 236.4 339.087 226.5 325.987C236.1 326.387 246 326.587 256 326.587C266.3 326.587 276.4 326.387 286.4 325.887C277.2 338.587 267.3 350.687 256.8 362.287V362.287ZM387.5 392.287C386.6 404.487 380.6 415.887 371 423.587C355.1 432.787 321.2 420.787 284.6 389.387C280.4 385.787 276.2 381.887 271.9 377.887C287.2 360.987 301.3 343.087 314.1 324.287C337 322.387 359.8 318.887 382.3 313.787C383.3 317.887 384.2 321.987 385 325.987C389.9 347.587 390.7 370.087 387.5 392.287V392.287ZM405.7 284.787C402.9 285.687 400.1 286.587 397.2 287.387C390.2 265.587 381.6 244.287 371.7 223.587C381.3 203.187 389.4 182.187 396.2 160.687C401.4 162.187 406.4 163.787 411.2 165.387C457.8 181.387 490.5 205.187 490.5 223.387C490.5 242.987 455.6 268.287 405.7 284.787ZM256 269.787C281.3 269.787 301.8 249.287 301.8 223.987C301.8 198.687 281.3 178.187 256 178.187C230.7 178.187 210.2 198.687 210.2 223.987C210.2 249.287 230.7 269.787 256 269.787Z" fill="#61DBFB"/>
</svg>
