<svg width="598" height="571" viewBox="0 0 598 571" fill="none" xmlns="http://www.w3.org/2000/svg">
<path d="M414.351 398.563C436.418 396.266 453.16 377.143 452.399 354.192C451.639 331.243 432.613 312.883 409.784 312.883H408.263C384.67 313.648 366.408 333.537 367.17 357.251C367.931 368.727 372.496 378.672 379.345 385.556C353.472 436.812 313.901 474.296 254.545 505.661C214.212 527.081 172.359 534.731 130.506 529.377C96.2616 524.787 69.6273 509.488 52.8833 484.241C28.5335 446.757 26.2512 406.211 46.7981 365.667C61.2576 336.597 84.0844 315.177 98.5438 304.467C95.5001 294.522 90.9333 277.693 88.6511 265.454C-21.6915 345.778 -10.2758 454.407 23.2075 505.661C48.3188 543.913 99.3053 567.627 155.618 567.627C170.836 567.627 186.055 566.096 201.276 562.273C298.682 543.147 372.498 485.006 414.351 398.563V398.563ZM548.284 303.704C490.449 235.618 405.22 198.134 307.813 198.134H295.639C288.79 184.365 274.33 175.183 258.35 175.183H256.827C233.239 175.949 214.976 195.838 215.735 219.554C216.497 242.503 235.521 260.864 258.35 260.864H259.871C276.612 260.098 291.072 249.388 297.159 234.853H310.857C368.693 234.853 423.482 251.682 472.948 284.578C510.996 309.823 538.391 342.719 553.61 382.497C566.547 414.627 565.785 445.991 552.087 472.768C530.781 513.311 495.015 535.497 447.834 535.497C417.395 535.497 388.478 526.315 373.257 519.431C364.887 527.081 349.666 539.32 339.012 546.972C371.736 562.271 405.22 570.687 437.18 570.687C510.234 570.687 564.264 530.141 584.811 489.597C606.879 445.226 605.356 368.727 548.284 303.704V303.704ZM161.705 411.565C162.467 434.516 181.491 452.874 204.32 452.874H205.843C229.433 452.111 247.696 432.219 246.934 408.505C246.175 385.554 227.149 367.196 204.32 367.196H202.799C201.276 367.196 198.991 367.196 197.473 367.959C166.272 315.94 153.336 259.333 157.902 198.132C160.944 152.232 176.165 112.452 202.799 79.5562C224.867 51.2513 267.481 37.4816 296.4 36.7184C377.062 35.1874 411.305 136.166 413.589 176.712C423.482 179.006 440.224 184.362 451.639 188.188C442.506 64.2602 366.408 0 293.356 0C224.867 0 161.705 49.725 136.592 123.164C101.588 221.083 124.417 315.177 167.031 389.382C163.228 394.735 160.944 403.151 161.705 411.567V411.565Z" fill="#764ABC"/>
</svg>
