<svg width="30" height="18" viewBox="0 0 30 18" fill="none" xmlns="http://www.w3.org/2000/svg">
<path d="M29.5205 1.62115L28.5378 0.631635C28.2285 0.322608 27.8171 0.152363 27.3773 0.152363C26.9378 0.152363 26.5258 0.322608 26.2166 0.631635L15.0067 11.842L3.78393 0.619196C3.47515 0.310169 3.0632 0.140167 2.62368 0.140167C2.18416 0.140167 1.77197 0.310169 1.46294 0.619196L0.480004 1.60262C-0.160001 2.24214 -0.160001 3.28385 0.480004 3.92337L13.8421 17.3335C14.1508 17.6423 14.5623 17.8598 15.0057 17.8598H15.0109C15.4506 17.8598 15.8621 17.642 16.1709 17.3335L29.5205 3.95971C29.8298 3.65093 29.9995 3.22702 30 2.78751C30 2.34775 29.8298 1.92969 29.5205 1.62115Z" fill="white"/>
</svg>
