<svg width="39" height="38" viewBox="0 0 39 38" fill="none" xmlns="http://www.w3.org/2000/svg">
<path d="M12.8241 6.69C12.9761 6.69 13.1161 6.674 13.2441 6.642C13.3761 6.61 13.4901 6.56 13.5861 6.492C13.6821 6.42 13.7581 6.33 13.8141 6.222C13.8701 6.114 13.8981 5.984 13.8981 5.832C13.8981 5.672 13.8681 5.54 13.8081 5.436C13.7521 5.332 13.6741 5.25 13.5741 5.19C13.4781 5.13 13.3661 5.088 13.2381 5.064C13.1141 5.04 12.9841 5.028 12.8481 5.028H11.5521V6.69H12.8241ZM11.5521 7.038V9H11.1441V4.68H12.8361C13.3121 4.68 13.6761 4.77 13.9281 4.95C14.1801 5.126 14.3061 5.414 14.3061 5.814C14.3061 6.086 14.2501 6.302 14.1381 6.462C14.0301 6.622 13.8521 6.758 13.6041 6.87C13.7321 6.914 13.8321 6.978 13.9041 7.062C13.9761 7.146 14.0301 7.242 14.0661 7.35C14.1021 7.458 14.1241 7.572 14.1321 7.692C14.1441 7.812 14.1521 7.928 14.1561 8.04C14.1601 8.204 14.1661 8.34 14.1741 8.448C14.1861 8.556 14.1981 8.644 14.2101 8.712C14.2261 8.78 14.2441 8.834 14.2641 8.874C14.2841 8.91 14.3081 8.938 14.3361 8.958V9H13.8861C13.8421 8.928 13.8101 8.828 13.7901 8.7C13.7741 8.572 13.7601 8.438 13.7481 8.298C13.7401 8.158 13.7321 8.022 13.7241 7.89C13.7201 7.758 13.7101 7.65 13.6941 7.566C13.6701 7.45 13.6301 7.358 13.5741 7.29C13.5221 7.218 13.4581 7.164 13.3821 7.128C13.3061 7.092 13.2201 7.068 13.1241 7.056C13.0321 7.044 12.9361 7.038 12.8361 7.038H11.5521ZM15.152 9V4.68H18.026V5.028H15.56V6.588H17.786V6.936H15.56V8.652H18.086V9H15.152ZM18.424 9L20.122 4.68H20.584L22.24 9H21.82L21.322 7.644H19.354L18.844 9H18.424ZM19.492 7.296H21.184L20.338 5.028L19.492 7.296ZM22.8219 9V4.68H24.2979C24.4179 4.68 24.5359 4.684 24.6519 4.692C24.7679 4.696 24.8819 4.71 24.9939 4.734C25.1059 4.754 25.2139 4.786 25.3179 4.83C25.4259 4.874 25.5299 4.932 25.6299 5.004C25.7739 5.108 25.8919 5.236 25.9839 5.388C26.0759 5.536 26.1479 5.694 26.1999 5.862C26.2559 6.026 26.2939 6.194 26.3139 6.366C26.3379 6.534 26.3499 6.69 26.3499 6.834C26.3499 6.978 26.3399 7.124 26.3199 7.272C26.3039 7.42 26.2759 7.566 26.2359 7.71C26.1959 7.85 26.1419 7.986 26.0739 8.118C26.0099 8.246 25.9279 8.364 25.8279 8.472C25.7279 8.584 25.6179 8.674 25.4979 8.742C25.3819 8.81 25.2579 8.864 25.1259 8.904C24.9979 8.94 24.8639 8.966 24.7239 8.982C24.5839 8.994 24.4419 9 24.2979 9H22.8219ZM23.2299 8.652H24.2079C24.3919 8.652 24.5639 8.642 24.7239 8.622C24.8879 8.598 25.0539 8.542 25.2219 8.454C25.3659 8.382 25.4839 8.284 25.5759 8.16C25.6679 8.036 25.7399 7.902 25.7919 7.758C25.8479 7.61 25.8859 7.456 25.9059 7.296C25.9299 7.136 25.9419 6.982 25.9419 6.834C25.9419 6.678 25.9319 6.52 25.9119 6.36C25.8919 6.196 25.8539 6.042 25.7979 5.898C25.7419 5.75 25.6659 5.616 25.5699 5.496C25.4739 5.372 25.3499 5.27 25.1979 5.19C25.0699 5.122 24.9179 5.078 24.7419 5.058C24.5659 5.038 24.3879 5.028 24.2079 5.028H23.2299V8.652ZM4.25309 16L5.95109 11.68H6.41309L8.06909 16H7.64909L7.15109 14.644H5.18309L4.67309 16H4.25309ZM5.32109 14.296H7.01309L6.16709 12.028L5.32109 14.296ZM9.05904 15.652H10.097C10.321 15.652 10.515 15.642 10.679 15.622C10.847 15.602 10.985 15.562 11.093 15.502C11.201 15.438 11.281 15.35 11.333 15.238C11.389 15.122 11.417 14.97 11.417 14.782C11.417 14.602 11.387 14.458 11.327 14.35C11.267 14.238 11.181 14.152 11.069 14.092C10.957 14.032 10.823 13.992 10.667 13.972C10.511 13.948 10.337 13.936 10.145 13.936H9.05904V15.652ZM9.05904 13.588H10.091C10.303 13.588 10.481 13.57 10.625 13.534C10.769 13.498 10.885 13.446 10.973 13.378C11.061 13.306 11.123 13.22 11.159 13.12C11.199 13.016 11.219 12.898 11.219 12.766C11.219 12.63 11.197 12.516 11.153 12.424C11.109 12.328 11.039 12.252 10.943 12.196C10.847 12.136 10.721 12.094 10.565 12.07C10.413 12.042 10.225 12.028 10.001 12.028H9.05904V13.588ZM8.65104 16V11.68H10.211C10.463 11.68 10.679 11.706 10.859 11.758C11.039 11.81 11.185 11.884 11.297 11.98C11.413 12.076 11.497 12.192 11.549 12.328C11.601 12.46 11.627 12.606 11.627 12.766C11.627 12.918 11.607 13.05 11.567 13.162C11.527 13.27 11.475 13.362 11.411 13.438C11.347 13.51 11.273 13.568 11.189 13.612C11.109 13.652 11.025 13.68 10.937 13.696V13.708C11.237 13.752 11.459 13.87 11.603 14.062C11.751 14.254 11.825 14.494 11.825 14.782C11.825 15.006 11.789 15.196 11.717 15.352C11.649 15.508 11.553 15.634 11.429 15.73C11.305 15.826 11.155 15.896 10.979 15.94C10.807 15.98 10.619 16 10.415 16H8.65104ZM12.485 13.846C12.485 13.53 12.527 13.234 12.611 12.958C12.699 12.682 12.827 12.442 12.995 12.238C13.163 12.03 13.371 11.866 13.619 11.746C13.867 11.626 14.153 11.566 14.477 11.566C14.813 11.566 15.107 11.626 15.359 11.746C15.615 11.862 15.827 12.024 15.995 12.232C16.167 12.436 16.295 12.678 16.379 12.958C16.467 13.234 16.511 13.53 16.511 13.846C16.511 14.158 16.467 14.452 16.379 14.728C16.295 15 16.169 15.24 16.001 15.448C15.833 15.652 15.623 15.814 15.371 15.934C15.119 16.054 14.827 16.114 14.495 16.114C14.163 16.114 13.871 16.054 13.619 15.934C13.367 15.814 13.157 15.652 12.989 15.448C12.821 15.24 12.695 15 12.611 14.728C12.527 14.452 12.485 14.158 12.485 13.846ZM14.501 15.766C14.781 15.766 15.021 15.714 15.221 15.61C15.425 15.502 15.591 15.36 15.719 15.184C15.851 15.008 15.947 14.804 16.007 14.572C16.071 14.34 16.103 14.098 16.103 13.846C16.103 13.546 16.065 13.278 15.989 13.042C15.917 12.802 15.811 12.598 15.671 12.43C15.531 12.262 15.361 12.134 15.161 12.046C14.961 11.958 14.737 11.914 14.489 11.914C14.213 11.914 13.973 11.968 13.769 12.076C13.569 12.184 13.403 12.328 13.271 12.508C13.143 12.684 13.047 12.888 12.983 13.12C12.923 13.352 12.893 13.594 12.893 13.846C12.893 14.102 12.923 14.346 12.983 14.578C13.047 14.81 13.143 15.014 13.271 15.19C13.403 15.366 13.569 15.506 13.769 15.61C13.973 15.714 14.217 15.766 14.501 15.766ZM17.3289 11.68H17.7369V14.254C17.7369 14.79 17.8369 15.176 18.0369 15.412C18.2369 15.648 18.5589 15.766 19.0029 15.766C19.2349 15.766 19.4309 15.736 19.5909 15.676C19.7549 15.612 19.8869 15.518 19.9869 15.394C20.0869 15.266 20.1589 15.108 20.2029 14.92C20.2469 14.732 20.2689 14.51 20.2689 14.254V11.68H20.6769V14.374C20.6769 14.938 20.5369 15.37 20.2569 15.67C19.9809 15.966 19.5629 16.114 19.0029 16.114C18.4389 16.114 18.0189 15.962 17.7429 15.658C17.4669 15.354 17.3289 14.926 17.3289 14.374V11.68ZM21.263 11.68H24.407V12.028H23.039V16H22.631V12.028H21.263V11.68ZM26.6389 16V11.68H27.2629L28.6789 15.49H28.6909L30.0829 11.68H30.7009V16H30.2929V12.148H30.2809L28.8649 16H28.4809L27.0589 12.148H27.0469V16H26.6389ZM32.9809 13.762L34.2829 11.68H34.7569L33.1909 14.116V16H32.7829V14.146L31.2409 11.68H31.7089L32.9809 13.762ZM14.3731 22.424H14.3851L15.3271 18.68H15.7471L14.6131 23H14.1631L13.1611 19.184H13.1491L12.1471 23H11.6971L10.5811 18.68H10.9891L11.9191 22.424H11.9311L12.9331 18.68H13.3891L14.3731 22.424ZM16.1471 20.846C16.1471 20.53 16.1891 20.234 16.2731 19.958C16.3611 19.682 16.4891 19.442 16.6571 19.238C16.8251 19.03 17.0331 18.866 17.2811 18.746C17.5291 18.626 17.8151 18.566 18.1391 18.566C18.4751 18.566 18.7691 18.626 19.0211 18.746C19.2771 18.862 19.4891 19.024 19.6571 19.232C19.8291 19.436 19.9571 19.678 20.0411 19.958C20.1291 20.234 20.1731 20.53 20.1731 20.846C20.1731 21.158 20.1291 21.452 20.0411 21.728C19.9571 22 19.8311 22.24 19.6631 22.448C19.4951 22.652 19.2851 22.814 19.0331 22.934C18.7811 23.054 18.4891 23.114 18.1571 23.114C17.8251 23.114 17.5331 23.054 17.2811 22.934C17.0291 22.814 16.8191 22.652 16.6511 22.448C16.4831 22.24 16.3571 22 16.2731 21.728C16.1891 21.452 16.1471 21.158 16.1471 20.846ZM18.1631 22.766C18.4431 22.766 18.6831 22.714 18.8831 22.61C19.0871 22.502 19.2531 22.36 19.3811 22.184C19.5131 22.008 19.6091 21.804 19.6691 21.572C19.7331 21.34 19.7651 21.098 19.7651 20.846C19.7651 20.546 19.7271 20.278 19.6511 20.042C19.5791 19.802 19.4731 19.598 19.3331 19.43C19.1931 19.262 19.0231 19.134 18.8231 19.046C18.6231 18.958 18.3991 18.914 18.1511 18.914C17.8751 18.914 17.6351 18.968 17.4311 19.076C17.2311 19.184 17.0651 19.328 16.9331 19.508C16.8051 19.684 16.7091 19.888 16.6451 20.12C16.5851 20.352 16.5551 20.594 16.5551 20.846C16.5551 21.102 16.5851 21.346 16.6451 21.578C16.7091 21.81 16.8051 22.014 16.9331 22.19C17.0651 22.366 17.2311 22.506 17.4311 22.61C17.6351 22.714 17.8791 22.766 18.1631 22.766ZM22.659 20.69C22.811 20.69 22.951 20.674 23.079 20.642C23.211 20.61 23.325 20.56 23.421 20.492C23.517 20.42 23.593 20.33 23.649 20.222C23.705 20.114 23.733 19.984 23.733 19.832C23.733 19.672 23.703 19.54 23.643 19.436C23.587 19.332 23.509 19.25 23.409 19.19C23.313 19.13 23.201 19.088 23.073 19.064C22.949 19.04 22.819 19.028 22.683 19.028H21.387V20.69H22.659ZM21.387 21.038V23H20.979V18.68H22.671C23.147 18.68 23.511 18.77 23.763 18.95C24.015 19.126 24.141 19.414 24.141 19.814C24.141 20.086 24.085 20.302 23.973 20.462C23.865 20.622 23.687 20.758 23.439 20.87C23.567 20.914 23.667 20.978 23.739 21.062C23.811 21.146 23.865 21.242 23.901 21.35C23.937 21.458 23.959 21.572 23.967 21.692C23.979 21.812 23.987 21.928 23.991 22.04C23.995 22.204 24.001 22.34 24.009 22.448C24.021 22.556 24.033 22.644 24.045 22.712C24.061 22.78 24.079 22.834 24.099 22.874C24.119 22.91 24.143 22.938 24.171 22.958V23H23.721C23.677 22.928 23.645 22.828 23.625 22.7C23.609 22.572 23.595 22.438 23.583 22.298C23.575 22.158 23.567 22.022 23.559 21.89C23.555 21.758 23.545 21.65 23.529 21.566C23.505 21.45 23.465 21.358 23.409 21.29C23.357 21.218 23.293 21.164 23.217 21.128C23.141 21.092 23.055 21.068 22.959 21.056C22.867 21.044 22.771 21.038 22.671 21.038H21.387ZM25.011 23V18.68H25.419V20.918L27.633 18.68H28.095L26.391 20.402L28.395 23H27.897L26.097 20.654L25.419 21.332V23H25.011ZM6.13109 30V25.68H7.70909C7.98909 25.68 8.21909 25.712 8.39909 25.776C8.58309 25.84 8.72709 25.928 8.83109 26.04C8.93909 26.152 9.01309 26.282 9.05309 26.43C9.09709 26.574 9.11909 26.726 9.11909 26.886C9.11909 27.126 9.06909 27.324 8.96909 27.48C8.87309 27.636 8.74709 27.76 8.59109 27.852C8.43509 27.94 8.25709 28.002 8.05709 28.038C7.86109 28.074 7.66309 28.092 7.46309 28.092H6.53909V30H6.13109ZM7.47509 27.744C7.66709 27.744 7.83909 27.732 7.99109 27.708C8.14309 27.684 8.27109 27.64 8.37509 27.576C8.48309 27.508 8.56509 27.418 8.62109 27.306C8.68109 27.19 8.71109 27.04 8.71109 26.856C8.71109 26.584 8.62109 26.378 8.44109 26.238C8.26509 26.098 7.98309 26.028 7.59509 26.028H6.53909V27.744H7.47509ZM11.4911 27.69C11.6431 27.69 11.7831 27.674 11.9111 27.642C12.0431 27.61 12.1571 27.56 12.2531 27.492C12.3491 27.42 12.4251 27.33 12.4811 27.222C12.5371 27.114 12.5651 26.984 12.5651 26.832C12.5651 26.672 12.5351 26.54 12.4751 26.436C12.4191 26.332 12.3411 26.25 12.2411 26.19C12.1451 26.13 12.0331 26.088 11.9051 26.064C11.7811 26.04 11.6511 26.028 11.5151 26.028H10.2191V27.69H11.4911ZM10.2191 28.038V30H9.81105V25.68H11.5031C11.9791 25.68 12.3431 25.77 12.5951 25.95C12.8471 26.126 12.9731 26.414 12.9731 26.814C12.9731 27.086 12.9171 27.302 12.8051 27.462C12.6971 27.622 12.5191 27.758 12.2711 27.87C12.3991 27.914 12.4991 27.978 12.5711 28.062C12.6431 28.146 12.6971 28.242 12.7331 28.35C12.7691 28.458 12.7911 28.572 12.7991 28.692C12.8111 28.812 12.8191 28.928 12.8231 29.04C12.8271 29.204 12.8331 29.34 12.8411 29.448C12.8531 29.556 12.8651 29.644 12.8771 29.712C12.8931 29.78 12.9111 29.834 12.9311 29.874C12.9511 29.91 12.9751 29.938 13.0031 29.958V30H12.5531C12.5091 29.928 12.4771 29.828 12.4571 29.7C12.4411 29.572 12.4271 29.438 12.4151 29.298C12.4071 29.158 12.3991 29.022 12.3911 28.89C12.3871 28.758 12.3771 28.65 12.3611 28.566C12.3371 28.45 12.2971 28.358 12.2411 28.29C12.1891 28.218 12.1251 28.164 12.0491 28.128C11.9731 28.092 11.8871 28.068 11.7911 28.056C11.6991 28.044 11.6031 28.038 11.5031 28.038H10.2191ZM13.651 27.846C13.651 27.53 13.693 27.234 13.777 26.958C13.865 26.682 13.993 26.442 14.161 26.238C14.329 26.03 14.537 25.866 14.785 25.746C15.033 25.626 15.319 25.566 15.643 25.566C15.979 25.566 16.273 25.626 16.525 25.746C16.781 25.862 16.993 26.024 17.161 26.232C17.333 26.436 17.461 26.678 17.545 26.958C17.633 27.234 17.677 27.53 17.677 27.846C17.677 28.158 17.633 28.452 17.545 28.728C17.461 29 17.335 29.24 17.167 29.448C16.999 29.652 16.789 29.814 16.537 29.934C16.285 30.054 15.993 30.114 15.661 30.114C15.329 30.114 15.037 30.054 14.785 29.934C14.533 29.814 14.323 29.652 14.155 29.448C13.987 29.24 13.861 29 13.777 28.728C13.693 28.452 13.651 28.158 13.651 27.846ZM15.667 29.766C15.947 29.766 16.187 29.714 16.387 29.61C16.591 29.502 16.757 29.36 16.885 29.184C17.017 29.008 17.113 28.804 17.173 28.572C17.237 28.34 17.269 28.098 17.269 27.846C17.269 27.546 17.231 27.278 17.155 27.042C17.083 26.802 16.977 26.598 16.837 26.43C16.697 26.262 16.527 26.134 16.327 26.046C16.127 25.958 15.903 25.914 15.655 25.914C15.379 25.914 15.139 25.968 14.935 26.076C14.735 26.184 14.569 26.328 14.437 26.508C14.309 26.684 14.213 26.888 14.149 27.12C14.089 27.352 14.059 27.594 14.059 27.846C14.059 28.102 14.089 28.346 14.149 28.578C14.213 28.81 14.309 29.014 14.437 29.19C14.569 29.366 14.735 29.506 14.935 29.61C15.139 29.714 15.383 29.766 15.667 29.766ZM21.5549 26.934C21.4709 26.566 21.3149 26.304 21.0869 26.148C20.8589 25.992 20.5609 25.914 20.1929 25.914C19.9329 25.914 19.7089 25.966 19.5209 26.07C19.3329 26.174 19.1769 26.314 19.0529 26.49C18.9329 26.666 18.8429 26.87 18.7829 27.102C18.7269 27.33 18.6989 27.572 18.6989 27.828C18.6989 28.068 18.7229 28.304 18.7709 28.536C18.8229 28.768 18.9069 28.976 19.0229 29.16C19.1389 29.34 19.2949 29.486 19.4909 29.598C19.6869 29.71 19.9329 29.766 20.2289 29.766C20.4129 29.766 20.5809 29.736 20.7329 29.676C20.8849 29.616 21.0169 29.534 21.1289 29.43C21.2449 29.322 21.3409 29.196 21.4169 29.052C21.4969 28.908 21.5569 28.75 21.5969 28.578H22.0229C21.9749 28.786 21.9049 28.984 21.8129 29.172C21.7209 29.356 21.5989 29.518 21.4469 29.658C21.2989 29.798 21.1169 29.91 20.9009 29.994C20.6889 30.074 20.4389 30.114 20.1509 30.114C19.8189 30.114 19.5349 30.054 19.2989 29.934C19.0629 29.81 18.8689 29.644 18.7169 29.436C18.5689 29.228 18.4609 28.988 18.3929 28.716C18.3249 28.44 18.2909 28.148 18.2909 27.84C18.2909 27.428 18.3409 27.078 18.4409 26.79C18.5449 26.502 18.6869 26.268 18.8669 26.088C19.0469 25.904 19.2589 25.772 19.5029 25.692C19.7469 25.608 20.0129 25.566 20.3009 25.566C20.5209 25.566 20.7249 25.596 20.9129 25.656C21.1049 25.712 21.2729 25.798 21.4169 25.914C21.5649 26.03 21.6849 26.174 21.7769 26.346C21.8729 26.514 21.9389 26.71 21.9749 26.934H21.5549ZM22.819 30V25.68H25.693V26.028H23.227V27.588H25.453V27.936H23.227V29.652H25.753V30H22.819ZM26.655 28.71C26.671 28.902 26.713 29.066 26.781 29.202C26.853 29.334 26.943 29.442 27.051 29.526C27.163 29.61 27.291 29.672 27.435 29.712C27.579 29.748 27.733 29.766 27.897 29.766C28.089 29.766 28.255 29.742 28.395 29.694C28.535 29.646 28.649 29.582 28.737 29.502C28.825 29.418 28.889 29.322 28.929 29.214C28.973 29.106 28.995 28.992 28.995 28.872C28.995 28.704 28.957 28.568 28.881 28.464C28.805 28.36 28.705 28.276 28.581 28.212C28.461 28.144 28.321 28.09 28.161 28.05C28.005 28.01 27.843 27.972 27.675 27.936C27.511 27.896 27.349 27.85 27.189 27.798C27.033 27.746 26.893 27.676 26.769 27.588C26.649 27.5 26.551 27.388 26.475 27.252C26.399 27.112 26.361 26.936 26.361 26.724C26.361 26.576 26.391 26.432 26.451 26.292C26.515 26.152 26.607 26.028 26.727 25.92C26.851 25.812 27.005 25.726 27.189 25.662C27.373 25.598 27.585 25.566 27.825 25.566C28.069 25.566 28.281 25.6 28.461 25.668C28.645 25.736 28.797 25.83 28.917 25.95C29.037 26.066 29.127 26.202 29.187 26.358C29.247 26.514 29.277 26.68 29.277 26.856H28.887C28.887 26.692 28.857 26.55 28.797 26.43C28.741 26.31 28.663 26.212 28.563 26.136C28.463 26.06 28.349 26.004 28.221 25.968C28.093 25.932 27.961 25.914 27.825 25.914C27.617 25.914 27.441 25.944 27.297 26.004C27.157 26.06 27.045 26.134 26.961 26.226C26.877 26.318 26.819 26.42 26.787 26.532C26.755 26.644 26.749 26.756 26.769 26.868C26.793 27.008 26.849 27.12 26.937 27.204C27.025 27.288 27.133 27.358 27.261 27.414C27.389 27.466 27.529 27.51 27.681 27.546C27.837 27.578 27.995 27.614 28.155 27.654C28.315 27.69 28.469 27.734 28.617 27.786C28.769 27.838 28.903 27.908 29.019 27.996C29.135 28.084 29.227 28.198 29.295 28.338C29.367 28.474 29.403 28.646 29.403 28.854C29.403 29.254 29.265 29.564 28.989 29.784C28.713 30.004 28.325 30.114 27.825 30.114C27.601 30.114 27.393 30.084 27.201 30.024C27.009 29.968 26.843 29.882 26.703 29.766C26.563 29.646 26.453 29.5 26.373 29.328C26.297 29.152 26.259 28.946 26.259 28.71H26.655ZM30.3229 28.71C30.3389 28.902 30.3809 29.066 30.4489 29.202C30.5209 29.334 30.6109 29.442 30.7189 29.526C30.8309 29.61 30.9589 29.672 31.1029 29.712C31.2469 29.748 31.4009 29.766 31.5649 29.766C31.7569 29.766 31.9229 29.742 32.0629 29.694C32.2029 29.646 32.3169 29.582 32.4049 29.502C32.4929 29.418 32.5569 29.322 32.5969 29.214C32.6409 29.106 32.6629 28.992 32.6629 28.872C32.6629 28.704 32.6249 28.568 32.5489 28.464C32.4729 28.36 32.3729 28.276 32.2489 28.212C32.1289 28.144 31.9889 28.09 31.8289 28.05C31.6729 28.01 31.5109 27.972 31.3429 27.936C31.1789 27.896 31.0169 27.85 30.8569 27.798C30.7009 27.746 30.5609 27.676 30.4369 27.588C30.3169 27.5 30.2189 27.388 30.1429 27.252C30.0669 27.112 30.0289 26.936 30.0289 26.724C30.0289 26.576 30.0589 26.432 30.1189 26.292C30.1829 26.152 30.2749 26.028 30.3949 25.92C30.5189 25.812 30.6729 25.726 30.8569 25.662C31.0409 25.598 31.2529 25.566 31.4929 25.566C31.7369 25.566 31.9489 25.6 32.1289 25.668C32.3129 25.736 32.4649 25.83 32.5849 25.95C32.7049 26.066 32.7949 26.202 32.8549 26.358C32.9149 26.514 32.9449 26.68 32.9449 26.856H32.5549C32.5549 26.692 32.5249 26.55 32.4649 26.43C32.4089 26.31 32.3309 26.212 32.2309 26.136C32.1309 26.06 32.0169 26.004 31.8889 25.968C31.7609 25.932 31.6289 25.914 31.4929 25.914C31.2849 25.914 31.1089 25.944 30.9649 26.004C30.8249 26.06 30.7129 26.134 30.6289 26.226C30.5449 26.318 30.4869 26.42 30.4549 26.532C30.4229 26.644 30.4169 26.756 30.4369 26.868C30.4609 27.008 30.5169 27.12 30.6049 27.204C30.6929 27.288 30.8009 27.358 30.9289 27.414C31.0569 27.466 31.1969 27.51 31.3489 27.546C31.5049 27.578 31.6629 27.614 31.8229 27.654C31.9829 27.69 32.1369 27.734 32.2849 27.786C32.4369 27.838 32.5709 27.908 32.6869 27.996C32.8029 28.084 32.8949 28.198 32.9629 28.338C33.0349 28.474 33.0709 28.646 33.0709 28.854C33.0709 29.254 32.9329 29.564 32.6569 29.784C32.3809 30.004 31.9929 30.114 31.4929 30.114C31.2689 30.114 31.0609 30.084 30.8689 30.024C30.6769 29.968 30.5109 29.882 30.3709 29.766C30.2309 29.646 30.1209 29.5 30.0409 29.328C29.9649 29.152 29.9269 28.946 29.9269 28.71H30.3229Z" fill="#FFFBFB"/>
<rect x="2.5" y="0.5" width="34" height="34" stroke="#FFFBFB"/>
</svg>
