<svg width="32" height="24" viewBox="0 0 32 24" fill="none" xmlns="http://www.w3.org/2000/svg">
<path d="M3.69603 9V0.36H4.41603V3.648C4.70403 3.344 5.00003 3.096 5.30403 2.904C5.61603 2.712 5.98803 2.616 6.42003 2.616C6.80403 2.616 7.16003 2.684 7.48803 2.82C7.81603 2.948 8.09203 3.176 8.31603 3.504C8.46803 3.728 8.55603 3.96 8.58003 4.2C8.61203 4.432 8.62803 4.676 8.62803 4.932V9H7.90803V4.944C7.90803 4.384 7.78403 3.964 7.53603 3.684C7.28803 3.404 6.87603 3.264 6.30003 3.264C6.07603 3.264 5.87203 3.3 5.68803 3.372C5.50403 3.436 5.33603 3.524 5.18403 3.636C5.04003 3.748 4.91603 3.876 4.81203 4.02C4.70803 4.164 4.62803 4.316 4.57203 4.476C4.50003 4.676 4.45603 4.868 4.44003 5.052C4.42403 5.236 4.41603 5.436 4.41603 5.652V9H3.69603ZM12.836 9.168C12.436 9.16 12.06 9.088 11.708 8.952C11.364 8.816 11.06 8.612 10.796 8.34C10.54 8.068 10.336 7.728 10.184 7.32C10.032 6.912 9.956 6.436 9.956 5.892C9.956 5.436 10.016 5.012 10.136 4.62C10.256 4.22 10.436 3.872 10.676 3.576C10.916 3.28 11.216 3.048 11.576 2.88C11.936 2.704 12.356 2.616 12.836 2.616C13.324 2.616 13.748 2.704 14.108 2.88C14.468 3.048 14.768 3.28 15.008 3.576C15.248 3.864 15.424 4.208 15.536 4.608C15.656 5.008 15.716 5.436 15.716 5.892C15.716 6.388 15.648 6.836 15.512 7.236C15.376 7.636 15.18 7.98 14.924 8.268C14.676 8.556 14.372 8.78 14.012 8.94C13.66 9.092 13.268 9.168 12.836 9.168ZM14.948 5.892C14.948 5.524 14.908 5.18 14.828 4.86C14.748 4.54 14.624 4.264 14.456 4.032C14.288 3.792 14.072 3.604 13.808 3.468C13.544 3.332 13.22 3.264 12.836 3.264C12.46 3.264 12.136 3.34 11.864 3.492C11.6 3.636 11.384 3.832 11.216 4.08C11.048 4.32 10.924 4.6 10.844 4.92C10.764 5.232 10.724 5.556 10.724 5.892C10.724 6.276 10.768 6.632 10.856 6.96C10.952 7.28 11.088 7.556 11.264 7.788C11.44 8.02 11.66 8.2 11.924 8.328C12.188 8.456 12.492 8.52 12.836 8.52C13.212 8.52 13.532 8.448 13.796 8.304C14.068 8.152 14.288 7.952 14.456 7.704C14.624 7.456 14.748 7.176 14.828 6.864C14.908 6.552 14.948 6.228 14.948 5.892ZM22.288 8.04L23.92 2.784H24.652L22.636 9H21.868L20.512 3.78H20.488L19.108 9H18.244L16.348 2.784H17.068L18.676 8.088L20.116 2.784H20.92L22.288 8.04ZM0.758047 23V14.36H1.57405V23H0.758047ZM12.2977 22.04L13.9297 16.784H14.6617L12.6457 23H11.8777L10.5217 17.78H10.4977L9.11773 23H8.25373L6.35773 16.784H7.07773L8.68573 22.088L10.1257 16.784H10.9297L12.2977 22.04ZM18.1739 23.168C17.7739 23.16 17.3979 23.088 17.0459 22.952C16.7019 22.816 16.3979 22.612 16.1339 22.34C15.8779 22.068 15.6739 21.728 15.5219 21.32C15.3699 20.912 15.2939 20.436 15.2939 19.892C15.2939 19.436 15.3539 19.012 15.4739 18.62C15.5939 18.22 15.7739 17.872 16.0139 17.576C16.2539 17.28 16.5539 17.048 16.9139 16.88C17.2739 16.704 17.6939 16.616 18.1739 16.616C18.6619 16.616 19.0859 16.704 19.4459 16.88C19.8059 17.048 20.1059 17.28 20.3459 17.576C20.5859 17.864 20.7619 18.208 20.8739 18.608C20.9939 19.008 21.0539 19.436 21.0539 19.892C21.0539 20.388 20.9859 20.836 20.8499 21.236C20.7139 21.636 20.5179 21.98 20.2619 22.268C20.0139 22.556 19.7099 22.78 19.3499 22.94C18.9979 23.092 18.6059 23.168 18.1739 23.168ZM20.2859 19.892C20.2859 19.524 20.2459 19.18 20.1659 18.86C20.0859 18.54 19.9619 18.264 19.7939 18.032C19.6259 17.792 19.4099 17.604 19.1459 17.468C18.8819 17.332 18.5579 17.264 18.1739 17.264C17.7979 17.264 17.4739 17.34 17.2019 17.492C16.9379 17.636 16.7219 17.832 16.5539 18.08C16.3859 18.32 16.2619 18.6 16.1819 18.92C16.1019 19.232 16.0619 19.556 16.0619 19.892C16.0619 20.276 16.1059 20.632 16.1939 20.96C16.2899 21.28 16.4259 21.556 16.6019 21.788C16.7779 22.02 16.9979 22.2 17.2619 22.328C17.5259 22.456 17.8299 22.52 18.1739 22.52C18.5499 22.52 18.8699 22.448 19.1339 22.304C19.4059 22.152 19.6259 21.952 19.7939 21.704C19.9619 21.456 20.0859 21.176 20.1659 20.864C20.2459 20.552 20.2859 20.228 20.2859 19.892ZM23.1259 23H22.4059V16.784H23.1259V17.948H23.1499C23.3499 17.452 23.6059 17.108 23.9179 16.916C24.2379 16.716 24.6579 16.616 25.1779 16.616V17.396C24.7699 17.388 24.4339 17.452 24.1699 17.588C23.9059 17.724 23.6939 17.908 23.5339 18.14C23.3819 18.372 23.2739 18.648 23.2099 18.968C23.1539 19.28 23.1259 19.608 23.1259 19.952V23ZM26.318 23V14.36H27.038V19.736L30.086 16.784H31.07L28.742 19.028L31.346 23H30.542L28.214 19.532L27.038 20.648V23H26.318Z" fill="#F0EFEF"/>
</svg>
