<svg width="50" height="50" viewBox="0 0 50 50" fill="none" xmlns="http://www.w3.org/2000/svg">
<g filter="url(#filter0_d)">
<path d="M13.3923 13.125H4V42H13.3923V13.125Z" fill="white"/>
<path d="M38.9755 13.4636C38.8758 13.4321 38.7812 13.398 38.6763 13.3691C38.5503 13.3402 38.4242 13.3166 38.2956 13.2956C37.7969 13.1959 37.2509 13.125 36.6104 13.125C31.1346 13.125 27.6617 17.1071 26.5173 18.6454V13.125H17.125V42H26.5173V26.25C26.5173 26.25 33.6153 16.3642 36.6104 23.625C36.6104 30.1061 36.6104 42 36.6104 42H46V22.5146C46 18.1519 43.0101 14.5163 38.9755 13.4636Z" fill="white"/>
<path d="M8.59375 9.1875C11.1308 9.1875 13.1875 7.13081 13.1875 4.59375C13.1875 2.05669 11.1308 0 8.59375 0C6.05669 0 4 2.05669 4 4.59375C4 7.13081 6.05669 9.1875 8.59375 9.1875Z" fill="white"/>
</g>
<defs>
<filter id="filter0_d" x="0" y="0" width="50" height="50" filterUnits="userSpaceOnUse" color-interpolation-filters="sRGB">
<feFlood flood-opacity="0" result="BackgroundImageFix"/>
<feColorMatrix in="SourceAlpha" type="matrix" values="0 0 0 0 0 0 0 0 0 0 0 0 0 0 0 0 0 0 127 0"/>
<feOffset dy="4"/>
<feGaussianBlur stdDeviation="2"/>
<feColorMatrix type="matrix" values="0 0 0 0 0 0 0 0 0 0 0 0 0 0 0 0 0 0 0.25 0"/>
<feBlend mode="normal" in2="BackgroundImageFix" result="effect1_dropShadow"/>
<feBlend mode="normal" in="SourceGraphic" in2="effect1_dropShadow" result="shape"/>
</filter>
</defs>
</svg>
