<svg width="1637" height="464" viewBox="0 0 1637 464" fill="none" xmlns="http://www.w3.org/2000/svg">
<ellipse cx="106.755" cy="112.693" rx="105.312" ry="112.693" fill="#FFFCFC"/>
<path d="M101.732 431.086L4.76126 141.443L208.225 145.271L101.732 431.086Z" fill="#FFFCFC"/>
<path d="M358.984 226.719V272.422H409.891C418.984 272.422 426.344 270.734 431.969 267.359C437.688 263.891 440.547 257.797 440.547 249.078C440.547 239.422 436.797 233.047 429.297 229.953C422.828 227.797 414.578 226.719 404.547 226.719H358.984ZM358.984 306.734V362H409.891C418.984 362 426.062 360.781 431.125 358.344C440.312 353.844 444.906 345.219 444.906 332.469C444.906 321.688 440.453 314.281 431.547 310.25C426.578 308 419.594 306.828 410.594 306.734H358.984ZM418.328 190.719C443.734 191.094 461.734 198.453 472.328 212.797C478.703 221.609 481.891 232.156 481.891 244.438C481.891 257.094 478.703 267.266 472.328 274.953C468.766 279.266 463.516 283.203 456.578 286.766C467.172 290.609 475.141 296.703 480.484 305.047C485.922 313.391 488.641 323.516 488.641 335.422C488.641 347.703 485.547 358.719 479.359 368.469C475.422 374.938 470.5 380.375 464.594 384.781C457.938 389.844 450.062 393.312 440.969 395.188C431.969 397.062 422.172 398 411.578 398H317.641V190.719H418.328ZM582.297 273.688C573.016 273.688 565.797 276.594 560.641 282.406C555.578 288.219 552.391 296.094 551.078 306.031H613.375C612.719 295.438 609.484 287.422 603.672 281.984C597.953 276.453 590.828 273.688 582.297 273.688ZM582.297 240.641C595.047 240.641 606.531 243.031 616.75 247.812C626.969 252.594 635.406 260.141 642.062 270.453C648.062 279.547 651.953 290.094 653.734 302.094C654.766 309.125 655.188 319.25 655 332.469H550.094C550.656 347.844 555.484 358.625 564.578 364.812C570.109 368.656 576.766 370.578 584.547 370.578C592.797 370.578 599.5 368.234 604.656 363.547C607.469 361.016 609.953 357.5 612.109 353H653.031C652 362.094 647.266 371.328 638.828 380.703C625.703 395.609 607.328 403.062 583.703 403.062C564.203 403.062 547 396.781 532.094 384.219C517.188 371.656 509.734 351.219 509.734 322.906C509.734 296.375 516.438 276.031 529.844 261.875C543.344 247.719 560.828 240.641 582.297 240.641ZM765.391 241.062C766.141 241.062 766.75 241.109 767.219 241.203C767.781 241.203 768.953 241.25 770.734 241.344V282.406C768.203 282.125 765.953 281.938 763.984 281.844C762.016 281.75 760.422 281.703 759.203 281.703C743.078 281.703 732.25 286.953 726.719 297.453C723.625 303.359 722.078 312.453 722.078 324.734V398H681.719V244.719H719.969V271.438C726.156 261.219 731.547 254.234 736.141 250.484C743.641 244.203 753.391 241.062 765.391 241.062ZM835.281 398H795.203V190.719H835.281V398ZM915.719 226.438H875.078V189.453H915.719V226.438ZM875.078 244.719H915.719V398H875.078V244.719ZM1039.61 241.062C1055.45 241.062 1068.39 245.234 1078.42 253.578C1088.55 261.828 1093.61 275.562 1093.61 294.781V398H1052.55V304.766C1052.55 296.703 1051.47 290.516 1049.31 286.203C1045.38 278.328 1037.88 274.391 1026.81 274.391C1013.22 274.391 1003.89 280.156 998.828 291.688C996.203 297.781 994.891 305.562 994.891 315.031V398H954.953V245H993.625V267.359C998.781 259.484 1003.66 253.812 1008.25 250.344C1016.5 244.156 1026.95 241.062 1039.61 241.062Z" fill="#FFFAFA"/>
</svg>
